# xmcd
#
# Track frame offsets: 
#        150
#        18218
#        55760
#        65411
#        80159
#        119064
#        136958
#
# Disc length: 2206 seconds
#
# Revision: 1
# Processed by: cddbd v1.5.2PL0 Copyright (c) Steve Scherf et al.
# Submitted via: ExactAudioCopy v1.1
#
DISCID=5e089c07
DTITLE=Big Walter Horton - Blues Harmonica Giant: The Deep Blues Harmo
DTITLE=nica of Walter Horton
DYEAR=2010
DGENRE=Blues
TTITLE0=Hard Hearted Woman
TTITLE1=Sick and Tired
TTITLE2=Walter's Jump
TTITLE3=Leaving In The Morning
TTITLE4=Walter and Carey
TTITLE5=Walking By Myself
TTITLE6=My Eyes Keep Me In Trouble
EXTD=
EXTT0=
EXTT1=
EXTT2=
EXTT3=
EXTT4=
EXTT5=
EXTT6=
PLAYORDER=
